<mxfile host="app.diagrams.net" modified="2020-12-17T16:15:25.371Z" agent="5.0 (Windows)" etag="eM4MQDV4rg3lQhFD5EPW" version="14.0.0" type="github">
  <diagram id="3rjUGyNdsQlxvh0ULCAy" name="Page-1">
    <mxGraphModel dx="650" dy="942" grid="1" gridSize="10" guides="1" tooltips="1" connect="1" arrows="1" fold="1" page="1" pageScale="1" pageWidth="827" pageHeight="1169" math="0" shadow="0">
      <root>
        <mxCell id="0" />
        <mxCell id="1" parent="0" />
        <mxCell id="812RldQz7ppKlHqmZfrb-1" value="" style="rounded=1;whiteSpace=wrap;html=1;" vertex="1" parent="1">
          <mxGeometry x="180" y="160" width="60" height="20" as="geometry" />
        </mxCell>
        <mxCell id="812RldQz7ppKlHqmZfrb-2" value="Leave" style="text;html=1;strokeColor=none;fillColor=none;align=center;verticalAlign=middle;whiteSpace=wrap;rounded=0;" vertex="1" parent="1">
          <mxGeometry x="190" y="160" width="40" height="20" as="geometry" />
        </mxCell>
      </root>
    </mxGraphModel>
  </diagram>
</mxfile>
